<?xml version="1.0" encoding="utf-8"?>

<!DOCTYPE svg PUBLIC "-//W3C//DTD SVG 1.1//EN" "http://www.w3.org/Graphics/SVG/1.1/DTD/svg11.dtd">
<!-- Uploaded to: SVG Repo, www.svgrepo.com, Generator: SVG Repo Mixer Tools -->
<svg version="1.1" id="_x32_" xmlns="http://www.w3.org/2000/svg" xmlns:xlink="http://www.w3.org/1999/xlink" 
	 viewBox="0 0 512 512"  xml:space="preserve">
<style type="text/css">
	.st0{fill:#000000;}
</style>
<g>
	<path class="st0" d="M409.046,138.009H299.711V103.42h-29.576V55.39c9.164-5.031,15.44-14.644,15.44-25.823
		C285.575,13.238,272.321,0,255.991,0c-16.337,0-29.566,13.238-29.566,29.567c0,11.179,6.275,20.809,15.422,25.823v48.03h-29.55
		v34.589H102.962c-23.672,0-42.864,19.167-42.872,42.855V469.12c0.008,23.689,19.195,42.872,42.872,42.88h306.084
		c23.672-0.008,42.855-19.192,42.864-42.88V180.864C451.901,157.176,432.714,138.018,409.046,138.009z M425.892,469.12
		c-0.018,9.316-7.555,16.846-16.846,16.862H102.962c-9.303-0.016-16.837-7.546-16.854-16.862V180.864
		c0.016-9.3,7.546-16.821,16.854-16.837h306.084c9.296,0.016,16.828,7.538,16.846,16.837V469.12z"/>
	<path class="st0" d="M176.582,215.462c-32.167,0-58.252,26.068-58.252,58.235c0,32.158,26.086,58.244,58.252,58.244
		c32.154,0,58.227-26.086,58.227-58.244C234.809,241.53,208.736,215.462,176.582,215.462z M176.582,293.015
		c-10.676,0-19.331-8.655-19.331-19.318c0-10.654,8.655-19.31,19.331-19.31c10.659,0,19.298,8.656,19.298,19.31
		C195.88,284.36,187.241,293.015,176.582,293.015z"/>
	<path class="st0" d="M335.425,215.462c-32.158,0-58.244,26.068-58.244,58.235c0,32.158,26.086,58.244,58.244,58.244
		c32.171,0,58.244-26.086,58.244-58.244C393.669,241.53,367.597,215.462,335.425,215.462z M372.894,276.628
		c0,3.844-3.12,6.97-6.966,6.97h-18.43v18.43c0,3.853-3.129,6.979-6.966,6.979h-7.381c-3.858,0-6.966-3.126-6.966-6.979v-18.43
		h-18.42c-3.846,0-6.966-3.126-6.966-6.97v-7.368c0-3.837,3.12-6.962,6.966-6.962h18.42v-18.43c0-3.836,3.108-6.97,6.966-6.97h7.381
		c3.837,0,6.966,3.134,6.966,6.97v18.43h18.43c3.845,0,6.966,3.126,6.966,6.962V276.628z"/>
	<rect x="349.291" y="409.444" class="st0" width="39.094" height="39.096"/>
</g>
</svg>